<svg width="599" height="148" viewBox="0 0 599 148" fill="none" xmlns="http://www.w3.org/2000/svg">
<rect width="599" height="148" rx="38" fill="#323232"/>
<path d="M299 58C276.361 58 258 76.3578 258 99C258 117.115 269.746 132.483 286.041 137.906C288.087 138.285 288.75 137.014 288.75 135.934V128.301C277.345 130.782 274.971 123.463 274.971 123.463C273.105 118.724 270.416 117.464 270.416 117.464C266.695 114.918 270.7 114.973 270.7 114.973C274.817 115.26 276.983 119.199 276.983 119.199C280.639 125.466 286.574 123.655 288.914 122.606C289.28 119.958 290.342 118.147 291.518 117.125C282.412 116.083 272.839 112.568 272.839 96.8612C272.839 92.3819 274.441 88.7261 277.062 85.8561C276.638 84.8208 275.234 80.6491 277.461 75.0048C277.461 75.0048 280.905 73.9046 288.74 79.2072C292.009 78.2984 295.515 77.844 299 77.8269C302.485 77.844 305.994 78.2984 309.27 79.2072C317.098 73.9046 320.535 75.0048 320.535 75.0048C322.766 80.6525 321.362 84.8243 320.938 85.8561C323.569 88.7261 325.158 92.3853 325.158 96.8612C325.158 112.609 315.567 116.077 306.438 117.091C307.907 118.362 309.25 120.856 309.25 124.683V135.934C309.25 137.024 309.906 138.305 311.987 137.902C328.267 132.473 340 117.108 340 99C340 76.3578 321.642 58 299 58Z" fill="#EFEFEF"/>
<path d="M52.368 20.988C55.056 20.988 57.036 21.66 58.308 23.004C59.58 24.348 60.216 26.256 60.216 28.728V37.692C60.216 40.164 59.58 42.072 58.308 43.416C57.036 44.76 55.056 45.432 52.368 45.432C49.68 45.432 47.7 44.76 46.428 43.416C45.156 42.072 44.52 40.164 44.52 37.692V28.728C44.52 26.256 45.156 24.348 46.428 23.004C47.7 21.66 49.68 20.988 52.368 20.988ZM52.368 23.688C50.784 23.688 49.584 24.084 48.768 24.876C47.976 25.668 47.58 26.832 47.58 28.368V38.016C47.58 39.552 47.976 40.728 48.768 41.544C49.584 42.336 50.784 42.732 52.368 42.732C53.952 42.732 55.14 42.336 55.932 41.544C56.748 40.728 57.156 39.552 57.156 38.016V28.404C57.156 26.868 56.748 25.704 55.932 24.912C55.14 24.096 53.952 23.688 52.368 23.688ZM77.5022 45H74.6222V42.48C73.9742 43.44 73.2542 44.172 72.4622 44.676C71.6702 45.18 70.8302 45.432 69.9422 45.432C68.4782 45.432 67.3262 44.928 66.4862 43.92C65.6702 42.888 65.2622 41.388 65.2622 39.42V27.432H68.3222V38.88C68.3222 40.152 68.5142 41.088 68.8982 41.688C69.3062 42.288 69.8582 42.588 70.5542 42.588C71.2022 42.588 71.8742 42.336 72.5702 41.832C73.2902 41.304 73.9142 40.584 74.4422 39.672V27.432H77.5022V45ZM90.2271 27C90.5631 27 90.8271 27.024 91.0191 27.072V30.528C90.6591 30.456 90.1911 30.42 89.6151 30.42C87.9351 30.42 86.6031 31.26 85.6191 32.94V45H82.5591V27.432H85.4391V30.06C86.0871 29.076 86.8071 28.32 87.5991 27.792C88.4151 27.264 89.2911 27 90.2271 27ZM108.403 20.988C109.291 20.988 110.311 21.072 111.463 21.24C112.615 21.384 113.671 21.552 114.631 21.744L114.559 24.444C111.847 23.916 109.795 23.652 108.403 23.652C106.747 23.652 105.559 23.988 104.839 24.66C104.143 25.308 103.795 26.4 103.795 27.936V38.376C103.795 39.912 104.143 41.028 104.839 41.724C105.559 42.396 106.747 42.732 108.403 42.732C109.483 42.732 110.887 42.564 112.615 42.228V34.272H108.115V31.392H115.675V44.1C112.795 44.988 110.371 45.432 108.403 45.432C105.643 45.432 103.675 44.844 102.499 43.668C101.323 42.492 100.735 40.656 100.735 38.16V28.26C100.735 25.716 101.335 23.868 102.535 22.716C103.735 21.564 105.691 20.988 108.403 20.988ZM123.764 27.432V45H120.704V27.432H123.764ZM122.216 20.34C122.864 20.34 123.356 20.484 123.692 20.772C124.052 21.06 124.232 21.468 124.232 21.996V23.04C124.232 23.568 124.052 23.976 123.692 24.264C123.356 24.528 122.864 24.66 122.216 24.66C121.592 24.66 121.1 24.528 120.74 24.264C120.404 23.976 120.236 23.568 120.236 23.04V21.996C120.236 21.468 120.404 21.06 120.74 20.772C121.1 20.484 121.592 20.34 122.216 20.34ZM132.39 27.432H137.07V29.952H132.39V40.248C132.39 41.16 132.57 41.82 132.93 42.228C133.314 42.612 133.902 42.804 134.694 42.804C135.702 42.804 136.686 42.684 137.646 42.444L137.718 45C136.662 45.288 135.702 45.432 134.838 45.432C132.918 45.432 131.514 45.012 130.626 44.172C129.762 43.308 129.33 41.916 129.33 39.996V29.952H126.81V27.432H129.33L129.906 22.752H132.39V27.432ZM144.014 29.772C145.334 27.924 146.87 27 148.622 27C150.158 27 151.334 27.528 152.15 28.584C152.99 29.616 153.41 31.092 153.41 33.012V45H150.35V33.444C150.35 31.044 149.57 29.844 148.01 29.844C147.314 29.844 146.606 30.108 145.886 30.636C145.166 31.164 144.542 31.884 144.014 32.796V45H140.954V20.412H144.014V29.772ZM170.526 45H167.646V42.48C166.998 43.44 166.278 44.172 165.486 44.676C164.694 45.18 163.854 45.432 162.966 45.432C161.502 45.432 160.35 44.928 159.51 43.92C158.694 42.888 158.286 41.388 158.286 39.42V27.432H161.346V38.88C161.346 40.152 161.538 41.088 161.922 41.688C162.33 42.288 162.882 42.588 163.578 42.588C164.226 42.588 164.898 42.336 165.594 41.832C166.314 41.304 166.938 40.584 167.466 39.672V27.432H170.526V45ZM178.463 29.772C179.087 28.884 179.807 28.2 180.623 27.72C181.439 27.24 182.291 27 183.179 27C184.667 27 185.819 27.528 186.635 28.584C187.451 29.616 187.859 31.128 187.859 33.12V38.808C187.859 40.992 187.343 42.648 186.311 43.776C185.279 44.88 183.683 45.432 181.523 45.432C179.411 45.432 177.863 44.892 176.879 43.812C175.895 42.732 175.403 41.088 175.403 38.88V20.412H178.463V29.772ZM182.459 29.736C181.763 29.736 181.055 30 180.335 30.528C179.615 31.056 178.991 31.776 178.463 32.688V39.24C178.463 40.416 178.727 41.316 179.255 41.94C179.807 42.564 180.563 42.876 181.523 42.876C183.707 42.876 184.799 41.64 184.799 39.168V33.552C184.799 31.008 184.019 29.736 182.459 29.736ZM205.441 20.988C208.273 20.988 210.361 21.54 211.705 22.644C213.049 23.748 213.721 25.296 213.721 27.288V28.188C213.721 29.58 213.337 30.816 212.569 31.896C211.801 32.952 210.697 33.696 209.257 34.128L215.377 45H211.957L206.233 34.776C206.041 34.8 205.657 34.812 205.081 34.812C204.121 34.812 203.173 34.776 202.237 34.704V45H199.177V21.132C201.865 21.036 203.953 20.988 205.441 20.988ZM205.369 23.58C204.577 23.58 203.533 23.604 202.237 23.652V32.148C203.533 32.268 204.613 32.328 205.477 32.328C208.933 32.328 210.661 30.924 210.661 28.116V27.396C210.661 26.1 210.241 25.14 209.401 24.516C208.561 23.892 207.217 23.58 205.369 23.58ZM223.846 27C225.862 27 227.398 27.552 228.454 28.656C229.51 29.76 230.038 31.356 230.038 33.444V37.152H220.786V39.276C220.786 40.5 221.074 41.388 221.65 41.94C222.25 42.468 223.186 42.732 224.458 42.732C225.706 42.732 227.266 42.54 229.138 42.156L229.21 44.82C226.978 45.228 225.382 45.432 224.422 45.432C222.046 45.432 220.33 44.916 219.274 43.884C218.242 42.852 217.726 41.256 217.726 39.096V33.444C217.726 31.356 218.23 29.76 219.238 28.656C220.27 27.552 221.806 27 223.846 27ZM223.846 29.556C222.91 29.556 222.166 29.856 221.614 30.456C221.062 31.032 220.786 31.872 220.786 32.976V34.704H226.978V33.084C226.978 31.932 226.69 31.056 226.114 30.456C225.562 29.856 224.806 29.556 223.846 29.556ZM241.82 27C243.332 27 244.508 27.516 245.348 28.548C246.188 29.58 246.608 31.068 246.608 33.012V39.42C246.608 41.292 246.116 42.768 245.132 43.848C244.172 44.904 242.864 45.432 241.208 45.432C240.584 45.432 239.912 45.3 239.192 45.036C238.496 44.796 237.848 44.508 237.248 44.172V51.66H234.188V27.432H237.068V29.988C238.388 27.996 239.972 27 241.82 27ZM241.208 29.736C240.512 29.736 239.804 30 239.084 30.528C238.388 31.032 237.776 31.728 237.248 32.616V41.436C237.752 41.844 238.304 42.168 238.904 42.408C239.528 42.624 240.092 42.732 240.596 42.732C242.564 42.732 243.548 41.484 243.548 38.988V33.444C243.548 30.972 242.768 29.736 241.208 29.736ZM257.25 27C259.386 27 260.97 27.576 262.002 28.728C263.058 29.856 263.586 31.464 263.586 33.552V38.88C263.586 40.968 263.058 42.588 262.002 43.74C260.97 44.868 259.386 45.432 257.25 45.432C255.114 45.432 253.518 44.868 252.462 43.74C251.43 42.588 250.914 40.968 250.914 38.88V33.552C250.914 31.464 251.43 29.856 252.462 28.728C253.518 27.576 255.114 27 257.25 27ZM257.25 29.556C256.218 29.556 255.414 29.88 254.838 30.528C254.262 31.176 253.974 32.1 253.974 33.3V39.132C253.974 40.332 254.262 41.256 254.838 41.904C255.414 42.552 256.218 42.876 257.25 42.876C258.282 42.876 259.086 42.552 259.662 41.904C260.238 41.256 260.526 40.332 260.526 39.132V33.264C260.526 32.064 260.238 31.152 259.662 30.528C259.086 29.88 258.282 29.556 257.25 29.556ZM280.699 27C282.835 27 284.419 27.576 285.451 28.728C286.507 29.856 287.035 31.464 287.035 33.552V38.88C287.035 40.968 286.507 42.588 285.451 43.74C284.419 44.868 282.835 45.432 280.699 45.432C278.563 45.432 276.967 44.868 275.911 43.74C274.879 42.588 274.363 40.968 274.363 38.88V33.552C274.363 31.464 274.879 29.856 275.911 28.728C276.967 27.576 278.563 27 280.699 27ZM280.699 29.556C279.667 29.556 278.863 29.88 278.287 30.528C277.711 31.176 277.423 32.1 277.423 33.3V39.132C277.423 40.332 277.711 41.256 278.287 41.904C278.863 42.552 279.667 42.876 280.699 42.876C281.731 42.876 282.535 42.552 283.111 41.904C283.687 41.256 283.975 40.332 283.975 39.132V33.264C283.975 32.064 283.687 31.152 283.111 30.528C282.535 29.88 281.731 29.556 280.699 29.556ZM298.184 19.98C298.976 19.98 299.732 20.064 300.452 20.232V22.68C299.732 22.56 298.988 22.5 298.22 22.5C297.476 22.5 296.888 22.74 296.456 23.22C296.048 23.7 295.844 24.432 295.844 25.416V27.432H299.444V29.952H295.844V45H292.784V29.952H290.264V27.432H292.784V25.596C292.808 23.724 293.276 22.32 294.188 21.384C295.1 20.448 296.432 19.98 298.184 19.98ZM315.223 27C317.359 27 318.943 27.576 319.975 28.728C321.031 29.856 321.559 31.464 321.559 33.552V38.88C321.559 40.968 321.031 42.588 319.975 43.74C318.943 44.868 317.359 45.432 315.223 45.432C313.087 45.432 311.491 44.868 310.435 43.74C309.403 42.588 308.887 40.968 308.887 38.88V33.552C308.887 31.464 309.403 29.856 310.435 28.728C311.491 27.576 313.087 27 315.223 27ZM315.223 29.556C314.191 29.556 313.387 29.88 312.811 30.528C312.235 31.176 311.947 32.1 311.947 33.3V39.132C311.947 40.332 312.235 41.256 312.811 41.904C313.387 42.552 314.191 42.876 315.223 42.876C316.255 42.876 317.059 42.552 317.635 41.904C318.211 41.256 318.499 40.332 318.499 39.132V33.264C318.499 32.064 318.211 31.152 317.635 30.528C317.059 29.88 316.255 29.556 315.223 29.556ZM338.467 45H335.587V42.48C334.939 43.44 334.219 44.172 333.427 44.676C332.635 45.18 331.795 45.432 330.907 45.432C329.443 45.432 328.291 44.928 327.451 43.92C326.635 42.888 326.227 41.388 326.227 39.42V27.432H329.287V38.88C329.287 40.152 329.479 41.088 329.863 41.688C330.271 42.288 330.823 42.588 331.519 42.588C332.167 42.588 332.839 42.336 333.535 41.832C334.255 41.304 334.879 40.584 335.407 39.672V27.432H338.467V45ZM351.192 27C351.528 27 351.792 27.024 351.984 27.072V30.528C351.624 30.456 351.156 30.42 350.58 30.42C348.9 30.42 347.568 31.26 346.584 32.94V45H343.524V27.432H346.404V30.06C347.052 29.076 347.772 28.32 348.564 27.792C349.38 27.264 350.256 27 351.192 27ZM370.628 21.42L377.864 45H374.552L373.004 39.528H364.328L362.78 45H359.648L366.848 21.42H370.628ZM368.684 24.228L365.084 36.792H372.248L368.684 24.228ZM385.9 27C386.908 27 388.12 27.144 389.536 27.432L389.464 30.024C388.216 29.736 387.076 29.592 386.044 29.592C383.884 29.592 382.804 30.288 382.804 31.68V32.004C382.804 32.436 382.912 32.784 383.128 33.048C383.368 33.312 383.788 33.588 384.388 33.876L387.772 35.46C389.812 36.42 390.832 37.824 390.832 39.672V40.464C390.808 42.12 390.304 43.368 389.32 44.208C388.36 45.024 386.836 45.432 384.748 45.432C383.668 45.432 382.12 45.18 380.104 44.676L380.248 41.94C382.048 42.468 383.524 42.732 384.676 42.732C385.852 42.732 386.668 42.576 387.124 42.264C387.58 41.928 387.808 41.388 387.808 40.644V40.284C387.808 39.708 387.688 39.252 387.448 38.916C387.232 38.58 386.86 38.292 386.332 38.052L382.84 36.504C381.784 36.024 381.004 35.448 380.5 34.776C380.02 34.104 379.78 33.324 379.78 32.436V31.932C379.828 30.3 380.332 29.076 381.292 28.26C382.276 27.42 383.812 27 385.9 27ZM398.206 27.432H402.886V29.952H398.206V40.248C398.206 41.16 398.386 41.82 398.746 42.228C399.13 42.612 399.718 42.804 400.51 42.804C401.518 42.804 402.502 42.684 403.462 42.444L403.534 45C402.478 45.288 401.518 45.432 400.654 45.432C398.734 45.432 397.33 45.012 396.442 44.172C395.578 43.308 395.146 41.916 395.146 39.996V29.952H392.626V27.432H395.146L395.722 22.752H398.206V27.432ZM414.438 27C414.774 27 415.038 27.024 415.23 27.072V30.528C414.87 30.456 414.402 30.42 413.826 30.42C412.146 30.42 410.814 31.26 409.83 32.94V45H406.77V27.432H409.65V30.06C410.298 29.076 411.018 28.32 411.81 27.792C412.626 27.264 413.502 27 414.438 27ZM424.207 27C426.343 27 427.927 27.576 428.959 28.728C430.015 29.856 430.543 31.464 430.543 33.552V38.88C430.543 40.968 430.015 42.588 428.959 43.74C427.927 44.868 426.343 45.432 424.207 45.432C422.071 45.432 420.475 44.868 419.419 43.74C418.387 42.588 417.871 40.968 417.871 38.88V33.552C417.871 31.464 418.387 29.856 419.419 28.728C420.475 27.576 422.071 27 424.207 27ZM424.207 29.556C423.175 29.556 422.371 29.88 421.795 30.528C421.219 31.176 420.931 32.1 420.931 33.3V39.132C420.931 40.332 421.219 41.256 421.795 41.904C422.371 42.552 423.175 42.876 424.207 42.876C425.239 42.876 426.043 42.552 426.619 41.904C427.195 41.256 427.483 40.332 427.483 39.132V33.264C427.483 32.064 427.195 31.152 426.619 30.528C426.043 29.88 425.239 29.556 424.207 29.556ZM438.451 21.42V42.3H447.811V45H435.391V21.42H438.451ZM456.818 27C458.882 27 460.382 27.468 461.318 28.404C462.278 29.316 462.758 30.78 462.758 32.796V45H459.842V42.192C458.45 44.352 456.878 45.432 455.126 45.432C453.734 45.432 452.618 44.952 451.778 43.992C450.962 43.032 450.554 41.724 450.554 40.068V39.06C450.554 37.62 451.046 36.432 452.03 35.496C453.014 34.536 454.334 34.056 455.99 34.056C456.902 34.056 458.138 34.212 459.698 34.524V32.544C459.698 31.512 459.458 30.768 458.978 30.312C458.522 29.856 457.802 29.628 456.818 29.628C455.666 29.628 454.046 29.808 451.958 30.168V27.54C454.214 27.18 455.834 27 456.818 27ZM456.746 36.432C455.738 36.432 454.97 36.696 454.442 37.224C453.914 37.752 453.65 38.496 453.65 39.456V39.852C453.65 40.74 453.854 41.436 454.262 41.94C454.67 42.444 455.186 42.696 455.81 42.696C456.458 42.696 457.118 42.42 457.79 41.868C458.486 41.292 459.122 40.488 459.698 39.456V36.684C458.786 36.516 457.802 36.432 456.746 36.432ZM470.505 29.772C471.129 28.884 471.849 28.2 472.665 27.72C473.481 27.24 474.333 27 475.221 27C476.709 27 477.861 27.528 478.677 28.584C479.493 29.616 479.901 31.128 479.901 33.12V38.808C479.901 40.992 479.385 42.648 478.353 43.776C477.321 44.88 475.725 45.432 473.565 45.432C471.453 45.432 469.905 44.892 468.921 43.812C467.937 42.732 467.445 41.088 467.445 38.88V20.412H470.505V29.772ZM474.501 29.736C473.805 29.736 473.097 30 472.377 30.528C471.657 31.056 471.033 31.776 470.505 32.688V39.24C470.505 40.416 470.769 41.316 471.297 41.94C471.849 42.564 472.605 42.876 473.565 42.876C475.749 42.876 476.841 41.64 476.841 39.168V33.552C476.841 31.008 476.061 29.736 474.501 29.736ZM490.331 27C492.347 27 493.883 27.552 494.939 28.656C495.995 29.76 496.523 31.356 496.523 33.444V37.152H487.271V39.276C487.271 40.5 487.559 41.388 488.135 41.94C488.735 42.468 489.671 42.732 490.943 42.732C492.191 42.732 493.751 42.54 495.623 42.156L495.695 44.82C493.463 45.228 491.867 45.432 490.907 45.432C488.531 45.432 486.815 44.916 485.759 43.884C484.727 42.852 484.211 41.256 484.211 39.096V33.444C484.211 31.356 484.715 29.76 485.723 28.656C486.755 27.552 488.291 27 490.331 27ZM490.331 29.556C489.395 29.556 488.651 29.856 488.099 30.456C487.547 31.032 487.271 31.872 487.271 32.976V34.704H493.463V33.084C493.463 31.932 493.175 31.056 492.599 30.456C492.047 29.856 491.291 29.556 490.331 29.556ZM516.069 21.42L523.305 45H519.993L518.445 39.528H509.769L508.221 45H505.089L512.289 21.42H516.069ZM514.125 24.228L510.525 36.792H517.689L514.125 24.228ZM533.757 27C535.269 27 536.445 27.516 537.285 28.548C538.125 29.58 538.545 31.068 538.545 33.012V39.42C538.545 41.292 538.053 42.768 537.069 43.848C536.109 44.904 534.801 45.432 533.145 45.432C532.521 45.432 531.849 45.3 531.129 45.036C530.433 44.796 529.785 44.508 529.185 44.172V51.66H526.125V27.432H529.005V29.988C530.325 27.996 531.909 27 533.757 27ZM533.145 29.736C532.449 29.736 531.741 30 531.021 30.528C530.325 31.032 529.713 31.728 529.185 32.616V41.436C529.689 41.844 530.241 42.168 530.841 42.408C531.465 42.624 532.029 42.732 532.533 42.732C534.501 42.732 535.485 41.484 535.485 38.988V33.444C535.485 30.972 534.705 29.736 533.145 29.736ZM550.843 27C552.355 27 553.531 27.516 554.371 28.548C555.211 29.58 555.631 31.068 555.631 33.012V39.42C555.631 41.292 555.139 42.768 554.155 43.848C553.195 44.904 551.887 45.432 550.231 45.432C549.607 45.432 548.935 45.3 548.215 45.036C547.519 44.796 546.871 44.508 546.271 44.172V51.66H543.211V27.432H546.091V29.988C547.411 27.996 548.995 27 550.843 27ZM550.231 29.736C549.535 29.736 548.827 30 548.107 30.528C547.411 31.032 546.799 31.728 546.271 32.616V41.436C546.775 41.844 547.327 42.168 547.927 42.408C548.551 42.624 549.115 42.732 549.619 42.732C551.587 42.732 552.571 41.484 552.571 38.988V33.444C552.571 30.972 551.791 29.736 550.231 29.736Z" fill="#EFEFEF"/>
</svg>
